<svg height="512" viewBox="0 0 98 98" width="512" xmlns="http://www.w3.org/2000/svg"><g id="Export-(Final---R1)" fill="none" fill-rule="evenodd"><g id="info" fill="#5EAAC8"><path id="circle" d="m49 0c27.0619527 0 49 21.9380473 49 49s-21.9380473 49-49 49-49-21.9380473-49-49 21.9380473-49 49-49zm0 7c-23.1959595 0-42 18.8040405-42 42s18.8040405 42 42 42 42-18.8040405 42-42-18.8040405-42-42-42z" fill-rule="nonzero"/><circle id="dot" cx="50" cy="26" r="4.5" stroke="#5EAAC8"/><path id="stroke" d="m60.9186949 66.3718502c4.3750735.2117522 4.3750735 6.7777778 0 6.98953l-19.8016809.005235c-1.9329966 0-3.5-1.5670034-3.5-3.5 0-1.8685634 1.4642776-3.3951264 3.3079648-3.4948211l6.5740212-.0057941v-23.247l-4.499.0007271c-1.8685634 0-3.3951264-1.4642776-3.4948211-3.3079648l-.0051789-.1920352c0-1.8685634 1.4642776-3.3951265 3.3079648-3.4948212l.1920352-.0051788h8c1.8685634 0 3.3951264 1.4642776 3.4948211 3.3079648l.0051789.1920352-.001 26.7462729z" fill-rule="nonzero"/></g></g></svg>